<svg xmlns="http://www.w3.org/2000/svg" viewBox="0 0 280.67 280.54"><defs><style>.cls-1{fill:#fff;}.cls-2{fill:#ceb76f;}</style></defs><title>资源 1</title><g id="图层_2" data-name="图层 2"><g id="Calque_2" data-name="Calque 2"><g id="Calque_1-2" data-name="Calque 1-2"><path class="cls-1" d="M278.17,131.48c-3.76-7.13-6.52-14.68-4.32-21.48,1.32-12.6,1.81-13.09-6-21-7.09-7.23-9.86-15.88-11.51-25.23-.77-4.37-2.51-7.54-6.72-9.42C239,49.56,231.43,41.55,226.51,31a9.83,9.83,0,0,0-8.35-6c-11.51-1.44-21.47-6.13-29.31-14.82-3.07-3.41-6.61-3.8-11-3.53-7.62.47-15.35,2.79-22.9-1.32C150.48,2.88,145.47,0,140.73,0s-9.81,3.15-14.57,5.25C122.1,7,118.1,8.19,113.6,7.57c-3.41-.47-6.93-.24-10.3-.87-4.42-.82-7.92.08-11,3.45A44.64,44.64,0,0,1,64,24.74a11.34,11.34,0,0,0-9.87,7.12A43.78,43.78,0,0,1,31.79,54.15a11.18,11.18,0,0,0-7,9.59A44.16,44.16,0,0,1,10.31,92.11C6.71,95.42,6,99.2,6.74,103.8c1.72,10,1.25,19.66-4.06,28.66-.56.95-.72,2.13-1.28,3.08-2,3.37-1.73,6.54,0,10.05,4.36,9,8.13,18.29,5.73,28.74-.37,1.61-.23,3.34-.51,5A8.86,8.86,0,0,0,9.41,188a49,49,0,0,1,15.75,31,8.4,8.4,0,0,0,5.16,7.1A49,49,0,0,1,55,250.65,8.54,8.54,0,0,0,62.34,256c12.44,1.39,22.74,7,31.25,16,2.24,2.38,4.79,2.78,8.06,2.57,9-.59,18.19-3.18,26.67,2.19,8.31,5.27,16.47,4.81,24.86,0,4.54-2.62,9.52-4.06,15-3.17,4,.65,8.22.56,12.3,1.06,2.5.31,4.52,0,6.31-1.94A53.21,53.21,0,0,1,220,255.64a6.3,6.3,0,0,0,5.37-3.82,52.55,52.55,0,0,1,26.17-26.28,6.5,6.5,0,0,0,4.08-5.55,52.47,52.47,0,0,1,16.61-32.8,6.41,6.41,0,0,0,1.49-1.79,7.36,7.36,0,0,0,.9-3,42.82,42.82,0,0,0-.54-8,35.12,35.12,0,0,1,4-24.73c3.47-6.15,3.38-11.93.08-18.19ZM140.4,267.18h0"/><path class="cls-2" d="M278.17,131.48c-3.76-7.13-6.52-14.68-4.32-21.48,1.32-12.6,1.81-13.09-6-21-7.09-7.23-9.86-15.88-11.51-25.23-.77-4.37-2.51-7.54-6.72-9.42C239,49.56,231.43,41.55,226.51,31a9.83,9.83,0,0,0-8.35-6c-11.51-1.44-21.47-6.13-29.31-14.82-3.07-3.41-6.61-3.8-11-3.53-7.62.47-15.35,2.79-22.9-1.32C150.48,2.88,145.47,0,140.73,0s-9.81,3.15-14.57,5.25C122.1,7,118.1,8.19,113.6,7.57c-3.41-.47-6.93-.24-10.3-.87-4.42-.82-7.92.08-11,3.45A44.64,44.64,0,0,1,64,24.74a11.34,11.34,0,0,0-9.87,7.12A43.78,43.78,0,0,1,31.79,54.15a11.18,11.18,0,0,0-7,9.59A44.16,44.16,0,0,1,10.31,92.11C6.71,95.42,6,99.2,6.74,103.8c1.72,10,1.25,19.66-4.06,28.66-.56.95-.72,2.13-1.28,3.08-2,3.37-1.73,6.54,0,10.05,4.36,9,8.13,18.29,5.73,28.74-.37,1.61-.23,3.34-.51,5A8.86,8.86,0,0,0,9.41,188a49,49,0,0,1,15.75,31,8.4,8.4,0,0,0,5.16,7.1A49,49,0,0,1,55,250.65,8.54,8.54,0,0,0,62.34,256c12.44,1.39,22.74,7,31.25,16,2.24,2.38,4.79,2.78,8.06,2.57,9-.59,18.19-3.18,26.67,2.19,8.31,5.27,16.47,4.81,24.86,0,4.54-2.62,9.52-4.06,15-3.17,4,.65,8.22.56,12.3,1.06,2.5.31,4.52,0,6.31-1.94A53.21,53.21,0,0,1,220,255.64a6.3,6.3,0,0,0,5.37-3.82,52.55,52.55,0,0,1,26.17-26.28,6.5,6.5,0,0,0,4.08-5.55,52.47,52.47,0,0,1,16.61-32.8,6.41,6.41,0,0,0,1.49-1.79,7.36,7.36,0,0,0,.9-3,42.82,42.82,0,0,0-.54-8,35.12,35.12,0,0,1,4-24.73c3.47-6.15,3.38-11.93.08-18.19ZM140.4,267.18h-.23c-69.7-.21-126.4-57-126.36-126.63s57-126.66,126.71-126.69,126.64,56.91,126.6,126.7A126.67,126.67,0,0,1,140.4,267.18Z"/><path class="cls-2" d="M141,19.12C73.92,19,19.15,73.73,19.15,140.81A121.64,121.64,0,0,0,140.72,262.32c67,0,121.58-54.39,121.62-121.41S207.91,19.22,141,19.12ZM197,66.8h2.05v.82a4,4,0,0,1,1-.84,2.53,2.53,0,0,1,1.12-.23,2.72,2.72,0,0,1,2.38,1.31,3.11,3.11,0,0,1,2.63-1.31q3,0,3,3.64v5.5h-2.06V70.75a4,4,0,0,0-.31-1.81,1.14,1.14,0,0,0-1-.54,1.35,1.35,0,0,0-1.24.64,4.06,4.06,0,0,0-.39,2.06v4.59h-2V70.78c0-1.58-.45-2.38-1.37-2.38a1.39,1.39,0,0,0-1.26.65,4.06,4.06,0,0,0-.4,2v4.59H197V66.8Zm-10.27,1.1a4.86,4.86,0,0,1,6.74,0,4.77,4.77,0,0,1,0,6.7,4.72,4.72,0,0,1-3.42,1.4,4.53,4.53,0,0,1-3.35-1.37,4.62,4.62,0,0,1-1.35-3.45A4.41,4.41,0,0,1,186.74,67.9Zm-11.37,0a3.84,3.84,0,0,1,5.41-.42,3.15,3.15,0,0,1,.37.36l0-7.62h2.07V75.69h-2.07v-.93A3.84,3.84,0,0,1,178.37,76a3.89,3.89,0,0,1-3-1.33,5,5,0,0,1-1.2-3.4A4.8,4.8,0,0,1,175.37,67.94ZM164,68a3.78,3.78,0,0,1,3.09-1.44,3.6,3.6,0,0,1,2.79,1.25v-1H172v9.78a6,6,0,0,1-.12.85,3.77,3.77,0,0,1-.86,1.73,4.17,4.17,0,0,1-3.31,1.38,4.48,4.48,0,0,1-2.94-1,3.94,3.94,0,0,1-1.37-2.74h2.07a2.41,2.41,0,0,0,.39,1,2.23,2.23,0,0,0,1.86.83c1.51,0,2.26-.92,2.26-2.77V74.7a3.88,3.88,0,0,1-2.9,1.3,3.79,3.79,0,0,1-3-1.32,4.87,4.87,0,0,1-1.17-3.33A5.08,5.08,0,0,1,164,68ZM153.1,66.8h2.07v.82a3.36,3.36,0,0,1,2.43-1.07,3.08,3.08,0,0,1,2.42,1,4,4,0,0,1,.75,2.71v5.45H158.7v-5a3.25,3.25,0,0,0-.36-1.81,1.47,1.47,0,0,0-1.3-.52,1.59,1.59,0,0,0-1.45.68,4.68,4.68,0,0,0-.42,2.33v4.29H153.1V66.8Zm-3.62-5a1.33,1.33,0,0,1,.94.39,1.4,1.4,0,0,1,0,1.94,1.26,1.26,0,0,1-.95.39,1.26,1.26,0,0,1-1.34-1.39,1.33,1.33,0,0,1,1.35-1.33Zm1,5v8.89h-2.06V66.8Zm-14.05-5.21h2.13v5.63l5.48-5.63h2.84L140.52,68l6.42,7.72h-2.86L139,69.42l-.43.44v5.83h-2.13V61.59Zm-16.59,6.35a3.84,3.84,0,0,1,3-1.34,3.78,3.78,0,0,1,2.79,1.28l0-7.62h2.07V75.69h-2.07v-.93A3.84,3.84,0,0,1,122.86,76a3.89,3.89,0,0,1-3-1.33,5,5,0,0,1-1.2-3.4A4.8,4.8,0,0,1,119.86,67.94Zm-10.45-.06a4.46,4.46,0,0,1,6.23,0,4.89,4.89,0,0,1,1.13,3.44l0,.41h-6.37a2.66,2.66,0,0,0,.71,1.74,2.4,2.4,0,0,0,2.89.28,5.6,5.6,0,0,0,1.12-1.35l1.74,1a7.07,7.07,0,0,1-.85,1.18,4.82,4.82,0,0,1-1,.8,3.73,3.73,0,0,1-1.11.46,5.61,5.61,0,0,1-1.29.15,4.19,4.19,0,0,1-3.19-1.28,4.79,4.79,0,0,1-1.21-3.42A4.9,4.9,0,0,1,109.41,67.88Zm-6.8-1.08h.88V63.53h2.05V66.8h1.6v1.91h-1.6v7h-2.05v-7h-.88Zm-2.81-5a1.33,1.33,0,0,1,.94.39,1.4,1.4,0,0,1,0,1.94,1.26,1.26,0,0,1-.95.39,1.36,1.36,0,0,1,0-2.72Zm1,5v8.89H98.76V66.8Zm-10.25,0v.82A3.4,3.4,0,0,1,93,66.55a3.08,3.08,0,0,1,2.42,1,4,4,0,0,1,.75,2.71v5.45H94.11v-5a3.25,3.25,0,0,0-.36-1.81,1.47,1.47,0,0,0-1.3-.52,1.59,1.59,0,0,0-1.45.68,4.68,4.68,0,0,0-.42,2.33v4.29H88.51V66.8ZM75,61.59h2.11v8.49a4.66,4.66,0,0,0,.6,2.66A2.9,2.9,0,0,0,80.16,74a3,3,0,0,0,2.51-1.22,4.66,4.66,0,0,0,.59-2.66V61.59h2.13v9.08A5.09,5.09,0,0,1,84,74.34a5.37,5.37,0,0,1-7.59.08l-.08-.08A5.09,5.09,0,0,1,75,70.67ZM60.12,90.77h162v3h-162Zm120.12,68.62q.09,6,.39,11.83a13.86,13.86,0,0,0-2.23-.16H173a13.74,13.74,0,0,0-2.22.16c.15-3.31.27-6.7.36-10.14s.12-7.39.12-11.83l0-11c0-4.43,0-8.38-.12-11.82s-.21-6.91-.36-10.39c.68.11,1.42.2,2.22.28s1.7.12,2.71.12c1.4,0,2.85-.06,4.36-.2s3-.2,4.42-.2a20.9,20.9,0,0,1,6.67.84,8.62,8.62,0,0,1,3.79,2.45,13.32,13.32,0,0,1,2.83,4.65,18.78,18.78,0,0,1,.9,6.18,24,24,0,0,1-1.14,7.85,13.75,13.75,0,0,1-3.22,5.34,12.67,12.67,0,0,1-4.9,3,19.21,19.21,0,0,1-6.2,1h-3.06Q180.15,153.39,180.24,159.39Zm-59.09,11.78-.83-.08h0c-.23,0-.47.07-.7.12,0-.06,0-.11,0-.17l-1.2,0H113.3a19.84,19.84,0,0,0-2.55.16q-1-3.93-2-8c-.69-2.71-1.4-5.45-2.16-8.18l-3.85-.12h-7c-1.05,0-2.08.07-3.12.12-.81,2.73-1.55,5.45-2.23,8.18s-1.3,5.39-1.86,8a6.18,6.18,0,0,0-1.42-.16H84.28a8.28,8.28,0,0,0-1.57.16q.72-2.08,1.93-5.77t2.64-8.34q1.45-4.65,3.1-10t3.31-10.78l3.25-10.75q1.59-5.28,2.91-9.86c.4.11.78.2,1.14.28a5.54,5.54,0,0,0,1.15.12,5.38,5.38,0,0,0,1.14-.12c.36-.08.74-.17,1.14-.28q1.93,6.83,4.12,14.6T113,145.55q2.23,7.5,4.33,14.23,1.44,4.6,2.69,8.24,1.66-12.18,3-24.23,1.52-13.64,2.76-27.67l1.23.28a6.43,6.43,0,0,0,1.24.12,5.52,5.52,0,0,0,1.14-.12c.4-.08.82-.17,1.26-.28q1.64,4.81,3.4,9.79t3.55,9.9q1.77,4.94,3.55,9.66l3.4,9q3.6-9,7.18-18.8t6.83-19.53a8.41,8.41,0,0,0,5.11,0L165,130.92q.69,7.94,1.36,15.51t1.32,14.16q.66,6.57,1.2,10.58a18,18,0,0,0-2.43-.16h-4.91a19.38,19.38,0,0,0-2.52.16q-.3-8.26-1-17.88t-1.42-19.09h-.12q-3.42,9.47-6.73,18.61t-6.56,18.36l-.57-.12a4.35,4.35,0,0,0-1.14,0l-.57.12q-3.25-9-6.47-18T127.77,135h-.12q-1,9.23-1.45,18.21l-1,18a6.36,6.36,0,0,0-1.44-.16h-2.65l0,.12ZM58.88,117.85q-.09-.88-.21-1.77l3.7.16q1.65.09,3.36.12l3.73.08h9.68l3.7-.08c1.12,0,2.22-.06,3.28-.12l3.46-.16q-.12.89-.21,1.77a17.14,17.14,0,0,0-.09,1.76,17.48,17.48,0,0,0,.09,1.77c.06.58.13,1.17.21,1.76-.8-.16-1.71-.31-2.71-.44s-2-.24-3-.32-1.92-.15-2.8-.2-1.63-.08-2.23-.08a10.56,10.56,0,0,0-.09,1.12v26q0,6.66.12,11.83c.08,3.44.2,6.83.36,10.14A13.75,13.75,0,0,0,77,171H71.6a13.86,13.86,0,0,0-2.23.16c.16-3.31.28-6.7.36-10.14s.12-7.39.12-11.83v-20c0-1.59,0-3,0-4.29a26.12,26.12,0,0,0-.15-2.8c-.6,0-1.34,0-2.22.08s-1.83.12-2.83.2-2,.18-3.07.32-2,.28-2.88.44c.08-.59.15-1.18.21-1.76a17.48,17.48,0,0,0,.09-1.77A17.14,17.14,0,0,0,58.88,117.85Zm-.33,43.79a16.72,16.72,0,0,1-3.25,5.69,14.1,14.1,0,0,1-5,3.61,16.6,16.6,0,0,1-6.53,1.24,17.1,17.1,0,0,1-5.8-.92A10.17,10.17,0,0,1,34.09,169q.6-2.82,1-5.14c.28-1.55.52-3.23.72-5.05H37a12.83,12.83,0,0,0,.9,3.33,10.74,10.74,0,0,0,1.68,2.77A7.38,7.38,0,0,0,42,166.8a7.59,7.59,0,0,0,3.25.68,6.09,6.09,0,0,0,5.32-2.4,9.69,9.69,0,0,0,1.71-5.78,8.65,8.65,0,0,0-1.32-5,14.68,14.68,0,0,0-3.31-3.41A47.83,47.83,0,0,0,43.33,148,22,22,0,0,1,39,144.6a17.29,17.29,0,0,1-3.31-4.93,18.35,18.35,0,0,1-1.32-7.5,22.56,22.56,0,0,1,1.11-7.38,16.34,16.34,0,0,1,3-5.37,12.71,12.71,0,0,1,4.3-3.29A12.33,12.33,0,0,1,47.92,115a14.57,14.57,0,0,1,5.69,1,12.55,12.55,0,0,1,4.17,2.89q-.54,1.84-.93,3.57l-1,4.37H55Q53,120,47.66,120a5.53,5.53,0,0,0-4.51,2.17,7.77,7.77,0,0,0-1.74,5A8.17,8.17,0,0,0,42.76,132a15.49,15.49,0,0,0,3.4,3.41,51.43,51.43,0,0,0,4.39,2.92,23.27,23.27,0,0,1,4.39,3.45,17.23,17.23,0,0,1,3.4,5,18,18,0,0,1,1.35,7.5,22.61,22.61,0,0,1-1.14,7.34Zm65.38,53.55H121.2v-9.37h-2.09v-1.21h4.82Zm12.06-.65a8.16,8.16,0,0,1-6.93,0,2.73,2.73,0,0,1-1.1-2.42,2.65,2.65,0,0,1,.53-1.84,3.51,3.51,0,0,1,2-.83,3.58,3.58,0,0,1-1.78-.81,2.21,2.21,0,0,1-.52-1.56,2.49,2.49,0,0,1,.25-1.17,2,2,0,0,1,.79-.81,4.31,4.31,0,0,1,1.36-.47,13.41,13.41,0,0,1,4,0,3.88,3.88,0,0,1,1.35.47,2,2,0,0,1,.79.81,2.48,2.48,0,0,1,.26,1.17,2.21,2.21,0,0,1-.53,1.56,3.6,3.6,0,0,1-1.9.81,3.51,3.51,0,0,1,2,.83,2.59,2.59,0,0,1,.54,1.84A2.76,2.76,0,0,1,136,214.54Zm11.91-3.78a9.23,9.23,0,0,1-.9,1.34c-.4.5-.88,1.05-1.47,1.67l-1.11,1.16-.16.26h-3l2-2.06c.37-.37.73-.76,1.09-1.15s.72-.81,1.07-1.24a5.61,5.61,0,0,1-2.18.43,4.22,4.22,0,0,1-2.77-.76,3,3,0,0,1-.89-2.35,3.32,3.32,0,0,1,1-2.75,5.65,5.65,0,0,1,3.47-.83,5.71,5.71,0,0,1,3.51.84,3.32,3.32,0,0,1,1,2.78,5.49,5.49,0,0,1-.66,2.66Zm11.51,3.35a4.72,4.72,0,0,1-3.69,1.22,4.78,4.78,0,0,1-3.7-1.22c-.72-.8-1.08-2.19-1.08-4.19s.36-3.39,1.08-4.19a4.73,4.73,0,0,1,3.69-1.23,5,5,0,0,1,3.56,1.08c.82.74,1.23,2.22,1.23,4.42A6.25,6.25,0,0,1,159.41,214.11Zm62.71-21.46h-162v-3h162Zm.69-24.69v2a6.82,6.82,0,0,0,.19,1.2c-1.09,0-2.42-.09-4-.12s-3.76,0-6.53,0H200.91a7.81,7.81,0,0,0-1.17.12c.16-3.31.28-6.7.36-10.14s.12-7.39.12-11.83v-10.9c-.05-4.43-.09-8.38-.21-11.82s-.2-6.92-.36-10.39c1.81.06,3.59.14,5.35.24s3.55.16,5.36.16c3,0,5.6,0,7.9-.12s3.86-.17,4.67-.28a19,19,0,0,0-.24,3.37v2a11.48,11.48,0,0,0,.19,1.6c-1.17-.11-2.44-.21-3.82-.32l-4-.32c-1.31-.11-2.48-.19-3.52-.24s-1.78-.08-2.23-.08q-.24,4.41-.27,8.74v8.74c2.61-.06,5-.14,7.07-.24s4.3-.24,6.59-.41c-.13.92-.21,1.61-.25,2.09s-.06,1-.06,1.52a9.91,9.91,0,0,0,.09,1.33c.06.45.13,1.11.22,2a129.93,129.93,0,0,0-13.66-.72V155.4q0,5.22.18,10c2.29,0,4.57-.08,6.86-.24s4.59-.43,6.92-.81c-.09.59-.15,1.13-.19,1.61s0,1.15,0,2ZM244.64,171c-1.59,0-3.75,0-6.52,0H226.59a7.81,7.81,0,0,0-1.17.12c.16-3.31.28-6.7.36-10.14s.12-7.39.12-11.83v-10.9c-.17-4.43-.21-8.38-.29-11.82s-.2-6.92-.36-10.39c1.81.06,3.59.14,5.35.24s3.55.16,5.36.16c3,0,5.6,0,7.9-.12s3.86-.17,4.66-.28a19,19,0,0,0-.24,3.37,18.34,18.34,0,0,0,.06,2c.06.48.1,1,.18,1.6-1.16-.11-2.43-.21-3.81-.32l-4-.32c-1.31-.11-2.48-.19-3.52-.24s-1.79-.08-2.23-.08q-.24,4.41-.27,8.74v8.74c2.61-.06,5-.14,7.07-.24s4.3-.24,6.58-.41c-.12.92-.2,1.61-.24,2.09s-.06,1-.06,1.52a9.91,9.91,0,0,0,.09,1.33c.06.45.13,1.11.21,2a129.59,129.59,0,0,0-13.65-.72V155.4q0,5.22.18,10c2.29,0,4.57-.08,6.86-.24s4.59-.43,6.91-.81c-.08.59-.14,1.13-.18,1.61s-.06,1.15-.06,2a18.34,18.34,0,0,0,.06,2,8.08,8.08,0,0,0,.18,1.2C247.56,171.16,246.23,171.07,244.64,171Z"/><path class="cls-2" d="M105.21,150.25h-11q1.33-4.87,2.71-9.58t2.94-9.5q1.45,4.82,2.74,9.5T105.21,150.25Z"/><path class="cls-2" d="M189.17,131.48a18.67,18.67,0,0,1-.79,6.17,9.19,9.19,0,0,1-2.17,3.57,6.48,6.48,0,0,1-2.92,1.64,12.91,12.91,0,0,1-3.09.41V132.08q0-5.58.09-11.35a2,2,0,0,1,.54-.08h2a5.59,5.59,0,0,1,2.44.56,5.36,5.36,0,0,1,2,1.81,10.07,10.07,0,0,1,1.39,3.33A22.11,22.11,0,0,1,189.17,131.48Z"/><path class="cls-2" d="M114.69,70.05h-4.12a2.11,2.11,0,0,1,.29-.69,1.87,1.87,0,0,1,.46-.51,1.77,1.77,0,0,1,.6-.33,2.06,2.06,0,0,1,.7-.12A2,2,0,0,1,114.69,70.05Z"/><path class="cls-2" d="M125,73.37a2.37,2.37,0,0,1-1.85.78,2.31,2.31,0,0,1-1.77-.81,3.08,3.08,0,0,1-.69-2.08v0a3,3,0,0,1,.71-2,2.28,2.28,0,0,1,1.77-.81,2.33,2.33,0,0,1,1.83.8A3.41,3.41,0,0,1,125,73.37Z"/><path class="cls-2" d="M170,71.26a3,3,0,0,1-.63,2,1.72,1.72,0,0,1-.27.27,2.44,2.44,0,0,1-3.44-.27,3.12,3.12,0,0,1-.61-2,3.18,3.18,0,0,1,.61-2,2.23,2.23,0,0,1,1.85-.87,2.3,2.3,0,0,1,1.8.8A3,3,0,0,1,170,71.26Z"/><path class="cls-2" d="M180.54,73.37a2.35,2.35,0,0,1-1.84.78,2.31,2.31,0,0,1-1.77-.81,3.08,3.08,0,0,1-.69-2.08v0a3,3,0,0,1,.7-2,1.89,1.89,0,0,1,.2-.2,2.42,2.42,0,0,1,3.4.2,3.35,3.35,0,0,1,0,4.13Z"/><path class="cls-2" d="M192,73.29a2.8,2.8,0,0,1-3.86,0,3,3,0,0,1-.71-2.11,2.84,2.84,0,0,1,.73-2,2.73,2.73,0,0,1,3.84,0,3.35,3.35,0,0,1,0,4.15Z"/><path class="cls-2" d="M134.06,207.2c0,1.09-.52,1.63-1.57,1.63a1.46,1.46,0,0,1-1.57-1.64c0-1,.51-1.48,1.56-1.48s1.58.49,1.58,1.49Z"/><path class="cls-2" d="M134.25,212.28a1.7,1.7,0,0,1,0,.45,1.56,1.56,0,0,1-1.76,1.33c-1.17,0-1.76-.62-1.76-1.84a2.32,2.32,0,0,1,.41-1.53,1.69,1.69,0,0,1,1.34-.48,2.19,2.19,0,0,1,.8.12,1.39,1.39,0,0,1,.56.36,1.59,1.59,0,0,1,.31.64,3.79,3.79,0,0,1,.1.95Z"/><path class="cls-2" d="M145.44,209.42a1.74,1.74,0,0,1-1.37.48,1.69,1.69,0,0,1-1.36-.49,2.37,2.37,0,0,1-.42-1.57c0-1.37.58-2.06,1.78-2.06s1.8.7,1.8,2.09a2.27,2.27,0,0,1-.43,1.55Z"/><path class="cls-2" d="M157.17,213.21a1.47,1.47,0,0,1-1.48.9,1.51,1.51,0,0,1-1.5-.91,12.82,12.82,0,0,1,0-6.51,1.67,1.67,0,0,1,.72-.72,1.69,1.69,0,0,1,2.28.72,9.06,9.06,0,0,1,.41,3.31,8,8,0,0,1-.43,3.21Z"/></g></g></g></svg>