<?xml version="1.0" encoding="UTF-8"?>
<svg id="Calque_2" data-name="Calque 2" xmlns="http://www.w3.org/2000/svg" viewBox="0 0 280.67 280.54">
  <defs>
    <style>
      .cls-1 {
        fill: #00247d;
      }
    </style>
  </defs>
  <g id="Calque_1-2" data-name="Calque 1">
    <path class="cls-1" d="m278.17,131.48c-3.76-7.13-6.52-14.68-4.32-21.48,1.32-12.6,1.81-13.09-6-21-7.09-7.23-9.86-15.88-11.51-25.23-.77-4.37-2.51-7.54-6.72-9.42-10.61-4.79-18.19-12.8-23.11-23.35-1.43-3.41-4.66-5.73-8.35-6-11.51-1.44-21.47-6.13-29.31-14.82-3.07-3.41-6.61-3.8-11-3.53-7.62.47-15.35,2.79-22.9-1.32-4.47-2.45-9.48-5.33-14.22-5.33s-9.81,3.15-14.57,5.25c-4.06,1.78-8.06,2.94-12.56,2.32-3.41-.47-6.93-.24-10.3-.87-4.42-.82-7.92.08-11,3.45-7.33,8.18-17.41,13.38-28.33,14.59-4.39.26-8.24,3.03-9.87,7.12-4.41,9.94-12.36,17.89-22.31,22.29-3.98,1.59-6.7,5.32-7,9.59-1.13,10.93-6.29,21.04-14.48,28.37-3.6,3.31-4.36,7.09-3.57,11.69,1.72,10,1.25,19.66-4.06,28.66-.56.95-.72,2.13-1.28,3.08-2,3.37-1.73,6.54,0,10.05,4.36,9,8.13,18.29,5.73,28.74-.37,1.61-.23,3.34-.51,5-.74,3.18.33,6.52,2.79,8.67,8.86,8.06,14.47,19.09,15.75,31,.25,3.15,2.24,5.89,5.16,7.1,10.96,4.88,19.74,13.62,24.69,24.55,1.22,3.04,4.06,5.12,7.33,5.35,12.44,1.39,22.74,7,31.25,16,2.24,2.38,4.79,2.78,8.06,2.57,9-.59,18.19-3.18,26.67,2.19,8.31,5.27,16.47,4.81,24.86,0,4.54-2.62,9.52-4.06,15-3.17,4.05.65,8.22.56,12.3,1.06,2.5.31,4.52,0,6.31-1.94,8.65-9.52,20.45-15.58,33.22-17.07,2.37-.16,4.44-1.64,5.37-3.82,5.24-11.65,14.54-20.99,26.17-26.28,2.31-.92,3.89-3.07,4.08-5.55,1.4-12.58,7.3-24.23,16.61-32.8.6-.5,1.11-1.11,1.49-1.79.51-.92.82-1.95.9-3,.07-2.68-.11-5.36-.54-8-1.75-8.45-.33-17.26,4-24.73,3.47-6.15,3.38-11.93.08-18.19Zm-137.77,135.7h-.23c-69.7-.21-126.4-57-126.36-126.63,0-69.75,57-126.66,126.71-126.69,69.71-.03,126.64,56.91,126.6,126.7-.03,69.96-56.76,126.65-126.72,126.62Z"/>
    <path class="cls-1" d="m141.01,19.12c-67.09-.12-121.86,54.61-121.86,121.69s54.55,121.51,121.57,121.51,121.58-54.39,121.62-121.41c.04-67.02-54.43-121.69-121.33-121.79Zm56,47.68h2.05v.82c.29-.33.62-.62,1-.84.35-.16.73-.24,1.12-.23.97-.02,1.88.48,2.38,1.31.6-.85,1.59-1.34,2.63-1.31,2,0,3,1.21,3,3.64v5.5h-2.06v-4.94c.04-.62-.07-1.24-.31-1.81-.22-.36-.63-.57-1.05-.54-.5-.03-.98.21-1.24.64-.31.64-.44,1.35-.39,2.06v4.59h-2.03v-4.91c0-1.58-.45-2.38-1.37-2.38-.51-.03-.99.22-1.26.65-.3.62-.44,1.31-.4,2v4.59h-2.07v-8.84Zm-10.27,1.1c1.88-1.81,4.86-1.81,6.74,0,1.83,1.86,1.83,4.84,0,6.7-.9.91-2.14,1.42-3.42,1.4-1.26.03-2.47-.47-3.35-1.37-.91-.91-1.4-2.16-1.35-3.45-.02-1.24.48-2.43,1.38-3.28Zm-11.37.04c1.38-1.61,3.8-1.8,5.41-.42.13.11.26.23.37.36l-.03-7.62h2.07v15.43h-2.07v-.93c-.71.77-1.7,1.22-2.75,1.24-1.15.02-2.25-.47-3-1.33-.81-.94-1.24-2.16-1.2-3.4-.04-1.22.39-2.41,1.2-3.33Zm-11.36.06c.74-.94,1.89-1.48,3.09-1.44,1.07-.02,2.09.44,2.79,1.25v-1h2.12v9.78c-.02.29-.06.57-.12.85-.13.64-.43,1.24-.86,1.73-.84.94-2.06,1.44-3.31,1.38-1.07.03-2.11-.33-2.94-1-.81-.69-1.3-1.68-1.37-2.74h2.07c.05.36.19.7.39,1,.45.56,1.14.87,1.86.83,1.51,0,2.26-.92,2.26-2.77v-1.17c-.74.83-1.79,1.3-2.9,1.3-1.15.04-2.25-.45-3-1.32-.79-.92-1.21-2.11-1.17-3.33-.05-1.21.34-2.4,1.09-3.35Zm-10.91-1.2h2.07v.82c.63-.68,1.51-1.06,2.43-1.07.92-.04,1.8.32,2.42,1,.57.78.84,1.75.75,2.71v5.45h-2.07v-5c.06-.63-.07-1.25-.36-1.81-.32-.38-.81-.58-1.3-.52-.57-.05-1.13.21-1.45.68-.34.73-.48,1.53-.42,2.33v4.29h-2.07v-8.88Zm-3.62-5.03c.35,0,.69.14.94.39s.4.59.39.94c.02.37-.12.74-.39,1-.25.26-.59.4-.95.39-.37.02-.74-.12-1-.39-.25-.27-.37-.63-.34-1,0-.74.6-1.34,1.35-1.33Zm1.02,5.03v8.89h-2.06v-8.89h2.06Zm-14.05-5.21h2.13v5.63s5.48-5.63,5.48-5.63h2.84l-6.38,6.41,6.42,7.72h-2.86l-5.07-6.3-.43.44v5.83h-2.13v-14.1Zm-16.59,6.35c.75-.87,1.85-1.37,3-1.34,1.07.01,2.08.48,2.79,1.28l-.04-7.62h2.07v15.43h-2.07v-.93c-.71.77-1.7,1.22-2.75,1.24-1.15.02-2.25-.47-3-1.33-.81-.94-1.24-2.16-1.2-3.4-.04-1.22.39-2.41,1.2-3.33Zm-10.45-.06c1.73-1.69,4.5-1.69,6.23,0,.8.96,1.21,2.19,1.13,3.44l.03.41h-6.37c.02.65.27,1.27.71,1.74.79.73,1.97.85,2.89.28.44-.39.82-.84,1.12-1.35l1.74,1c-.24.42-.53.82-.85,1.18-.3.31-.63.58-1,.8-.34.21-.72.37-1.11.46-.42.1-.86.15-1.29.15-1.2.05-2.36-.42-3.19-1.28-.84-.94-1.27-2.17-1.21-3.42-.06-1.24.36-2.46,1.17-3.41Zm-6.8-1.08h.88v-3.27h2.05v3.27h1.6v1.91h-1.6v7h-2.05v-7h-.88v-1.91Zm-2.81-5.03c.35,0,.69.14.94.39s.4.59.39.94c.02.37-.12.74-.39,1-.25.26-.59.4-.95.39-.36,0-.7-.14-.95-.39-.26-.26-.41-.63-.39-1,0-.74.6-1.34,1.35-1.33Zm1.02,5.03v8.89h-2.06v-8.89h2.06Zm-10.25,0v.82c.63-.67,1.51-1.06,2.44-1.07.92-.04,1.8.32,2.42,1,.57.78.84,1.75.75,2.71v5.45h-2.07v-5c.06-.63-.07-1.25-.36-1.81-.32-.38-.81-.58-1.3-.52-.57-.05-1.13.21-1.45.68-.34.73-.48,1.53-.42,2.33v4.29h-2.07v-8.88s2.06,0,2.06,0Zm-15.61-5.21h2.11v8.49c-.07.93.14,1.85.6,2.66.56.82,1.5,1.29,2.49,1.26.99.04,1.93-.42,2.51-1.22.46-.81.66-1.73.59-2.66v-8.53h2.13v9.08c.05,1.36-.45,2.68-1.38,3.67-2.08,2.12-5.48,2.15-7.59.08l-.08-.08c-.93-.99-1.43-2.31-1.38-3.67v-9.08Zm-14.84,29.18h162v3H60.12v-3Zm120.12,68.62c.06,4,.19,7.94.39,11.83-.74-.11-1.48-.17-2.23-.16h-5.39c-.74-.01-1.49.05-2.22.16.15-3.31.27-6.7.36-10.14.09-3.44.12-7.39.12-11.83l-.02-10.96c0-4.43,0-8.38-.12-11.82-.12-3.44-.21-6.91-.36-10.39.68.11,1.42.2,2.22.28.8.08,1.7.12,2.71.12,1.4,0,2.85-.06,4.36-.2,1.51-.14,3-.2,4.42-.2,2.25-.08,4.51.2,6.67.84,1.46.47,2.77,1.31,3.79,2.45,1.25,1.34,2.22,2.92,2.83,4.65.64,2,.95,4.08.9,6.18.06,2.66-.33,5.31-1.14,7.85-.65,2-1.75,3.83-3.22,5.34-1.38,1.36-3.06,2.39-4.9,3-2,.67-4.09,1.01-6.2,1h-3.06c0,4,.03,8,.09,12Zm-59.09,11.78c-.28-.03-.56-.06-.83-.08h-.02c-.23.03-.47.07-.7.12,0-.06.02-.11.02-.17-.4-.02-.8-.03-1.2-.03h-5.12c-.85,0-1.7.05-2.55.16-.64-2.62-1.31-5.29-2-8-.69-2.71-1.4-5.45-2.16-8.18l-3.85-.12h-6.98c-1.05,0-2.08.07-3.12.12-.81,2.73-1.55,5.45-2.23,8.18-.68,2.73-1.3,5.39-1.86,8-.47-.11-.94-.16-1.42-.16h-2.85c-.53,0-1.05.06-1.57.16.48-1.39,1.12-3.31,1.93-5.77.81-2.46,1.69-5.24,2.64-8.34.97-3.1,2.01-6.43,3.1-10,1.09-3.57,2.2-7.16,3.31-10.78l3.25-10.75c1.06-3.52,2.03-6.81,2.91-9.86.4.11.78.2,1.14.28.38.08.76.12,1.15.12s.77-.04,1.14-.12c.36-.08.74-.17,1.14-.28,1.29,4.55,2.67,9.41,4.12,14.6,1.45,5.19,2.94,10.28,4.47,15.28,1.49,5,2.93,9.74,4.33,14.23.96,3.07,1.86,5.82,2.69,8.24,1.11-8.12,2.11-16.19,3-24.23,1.01-9.09,1.93-18.32,2.76-27.67l1.23.28c.41.08.82.12,1.24.12.38,0,.76-.04,1.14-.12.4-.08.82-.17,1.26-.28,1.09,3.21,2.22,6.48,3.4,9.79s2.36,6.61,3.55,9.9c1.18,3.29,2.36,6.51,3.55,9.66,1.19,3.15,2.32,6.15,3.4,9,2.4-6,4.79-12.27,7.18-18.8,2.39-6.53,4.66-13.04,6.83-19.53,1.66.53,3.45.53,5.11,0l1.33,14.78c.46,5.29.91,10.46,1.36,15.51s.89,9.77,1.32,14.16c.44,4.38.84,7.91,1.2,10.58-.81-.11-1.62-.16-2.43-.16h-4.91c-.84,0-1.68.05-2.52.16-.2-5.51-.53-11.47-1-17.88-.47-6.41-.94-12.78-1.42-19.09h-.12c-2.28,6.31-4.52,12.52-6.73,18.61s-4.39,12.21-6.56,18.36l-.57-.12c-.38-.05-.76-.05-1.14,0l-.57.12c-2.17-6-4.33-12-6.47-18s-4.37-12.06-6.68-18.17h-.12c-.65,6.15-1.13,12.22-1.45,18.21l-1,18c-.47-.11-.96-.16-1.44-.16h-2.65s.03.08.04.12Zm-62.27-53.32c-.06-.59-.13-1.18-.21-1.77l3.7.16c1.1.06,2.22.1,3.36.12l3.73.08h9.68l3.7-.08c1.12,0,2.22-.06,3.28-.12l3.46-.16c-.08.59-.15,1.18-.21,1.77-.06.58-.09,1.17-.09,1.76s.03,1.18.09,1.77c.06.58.13,1.17.21,1.76-.8-.16-1.71-.31-2.71-.44s-2-.24-3-.32-1.92-.15-2.8-.2-1.63-.08-2.23-.08c-.05.37-.08.75-.09,1.12v25.98c0,4.44.04,8.38.12,11.83.08,3.44.2,6.83.36,10.14-.73-.12-1.48-.17-2.22-.17h-5.41c-.75-.01-1.49.05-2.23.16.16-3.31.28-6.7.36-10.14.08-3.44.12-7.39.12-11.83v-20c0-1.59-.01-3-.03-4.29,0-.94-.05-1.87-.15-2.8-.6,0-1.34,0-2.22.08s-1.83.12-2.83.2-2,.18-3.07.32-2,.28-2.88.44c.08-.59.15-1.18.21-1.76.06-.59.09-1.18.09-1.77s-.03-1.18-.09-1.76Zm-.33,43.79c-.7,2.09-1.8,4.03-3.25,5.69-1.38,1.56-3.09,2.79-5,3.61-2.07.85-4.29,1.27-6.53,1.24-1.97.03-3.93-.28-5.8-.92-1.45-.46-2.77-1.24-3.88-2.28.4-1.88.73-3.59,1-5.14.28-1.55.52-3.23.72-5.05h1.2c.15,1.15.45,2.26.9,3.33.42,1,.98,1.94,1.68,2.77.66.8,1.49,1.45,2.42,1.91,1.02.46,2.13.7,3.25.68,2.07.16,4.07-.75,5.32-2.4,1.17-1.7,1.77-3.72,1.71-5.78.08-1.76-.38-3.51-1.32-5-.91-1.31-2.03-2.46-3.31-3.41-1.39-1.04-2.84-2-4.33-2.88-1.58-.95-3.04-2.1-4.33-3.41-1.38-1.44-2.5-3.11-3.31-4.93-.96-2.38-1.41-4.94-1.32-7.5-.04-2.5.33-5,1.11-7.38.65-1.96,1.67-3.79,3-5.37,1.18-1.39,2.65-2.52,4.3-3.29,1.61-.74,3.37-1.12,5.14-1.12,1.94-.05,3.88.29,5.69,1,1.57.67,2.99,1.65,4.17,2.89-.36,1.23-.67,2.42-.93,3.57l-1,4.37h-.9c-1.29-4.56-3.72-6.84-7.29-6.84-1.76-.04-3.44.77-4.51,2.17-1.15,1.41-1.76,3.18-1.74,5-.07,1.72.4,3.42,1.35,4.85.95,1.31,2.1,2.46,3.4,3.41,1.41,1.05,2.88,2.02,4.39,2.92,1.6.97,3.07,2.13,4.39,3.45,1.42,1.45,2.57,3.15,3.4,5,.98,2.38,1.44,4.93,1.35,7.5.03,2.49-.36,4.97-1.14,7.34Zm65.38,53.55h-2.73v-9.37h-2.09v-1.21h4.82v10.58Zm12.06-.65c-2.2,1.03-4.73,1.03-6.93,0-.76-.56-1.18-1.48-1.1-2.42-.06-.66.13-1.31.53-1.84.56-.48,1.26-.77,2-.83-.66-.1-1.27-.38-1.78-.81-.37-.43-.55-.99-.52-1.56-.01-.4.07-.81.25-1.17.18-.34.45-.62.79-.81.42-.23.88-.39,1.36-.47.66-.11,1.33-.16,2-.15.67-.01,1.34.04,2,.15.47.07.93.23,1.35.47.34.19.61.47.79.81.18.36.27.76.26,1.17.03.57-.16,1.13-.53,1.56-.54.45-1.2.73-1.9.81.74.06,1.44.35,2,.83.41.52.6,1.18.54,1.84.07.94-.35,1.86-1.11,2.42Zm11.91-3.78c-.26.47-.56.92-.9,1.34-.4.5-.88,1.05-1.47,1.67l-1.11,1.16-.16.26h-3l2-2.06c.37-.37.73-.76,1.09-1.15.36-.39.72-.81,1.07-1.24-.69.29-1.43.43-2.18.43-.98.08-1.96-.19-2.77-.76-.63-.61-.96-1.47-.89-2.35-.11-1.02.26-2.04,1-2.75,1.04-.64,2.25-.94,3.47-.83,1.23-.11,2.46.19,3.51.84.75.72,1.12,1.75,1,2.78.01.93-.22,1.84-.66,2.66Zm11.51,3.35c-1,.92-2.34,1.36-3.69,1.22-1.35.14-2.7-.31-3.7-1.22-.72-.8-1.08-2.19-1.08-4.19s.36-3.39,1.08-4.19c1-.92,2.34-1.37,3.69-1.23,1.28-.11,2.55.28,3.56,1.08.82.74,1.23,2.22,1.23,4.42.13,1.46-.26,2.91-1.09,4.11Zm62.71-21.46H60.12v-3h162v3Zm.69-24.69v2c.03.41.09.81.19,1.2-1.09,0-2.42-.09-4-.12-1.58-.03-3.76,0-6.53,0h-11.56c-.41,0-.85.07-1.17.12.16-3.31.28-6.7.36-10.14.08-3.44.12-7.39.12-11.83v-10.9c-.05-4.43-.09-8.38-.21-11.82-.08-3.45-.2-6.92-.36-10.39,1.81.06,3.59.14,5.35.24,1.76.1,3.55.16,5.36.16,3,0,5.6,0,7.9-.12s3.86-.17,4.67-.28c-.18,1.11-.26,2.24-.24,3.37v2c0,.48.1,1,.19,1.6-1.17-.11-2.44-.21-3.82-.32l-4-.32c-1.31-.11-2.48-.19-3.52-.24-1.04-.05-1.78-.08-2.23-.08-.16,2.94-.25,5.85-.27,8.74v8.74c2.61-.06,5-.14,7.07-.24,2.07-.1,4.3-.24,6.59-.41-.13.92-.21,1.61-.25,2.09s-.06,1-.06,1.52c0,.44.03.89.09,1.33.06.45.13,1.11.22,2-4.54-.48-9.1-.72-13.66-.72v10.26c0,3.48.06,6.81.18,10,2.29,0,4.57-.08,6.86-.24,2.29-.16,4.59-.43,6.92-.81-.09.59-.15,1.13-.19,1.61-.04.48,0,1.15,0,2Zm21.83,3.08c-1.59-.03-3.75,0-6.52,0h-11.53c-.41,0-.85.07-1.17.12.16-3.31.28-6.7.36-10.14.08-3.44.12-7.39.12-11.83v-10.9c-.17-4.43-.21-8.38-.29-11.82-.08-3.45-.2-6.92-.36-10.39,1.81.06,3.59.14,5.35.24,1.76.1,3.55.16,5.36.16,3,0,5.6,0,7.9-.12,2.3-.12,3.86-.17,4.66-.28-.18,1.11-.26,2.24-.24,3.37,0,.86,0,1.52.06,2,.06.48.1,1,.18,1.6-1.16-.11-2.43-.21-3.81-.32l-4-.32c-1.31-.11-2.48-.19-3.52-.24s-1.79-.08-2.23-.08c-.16,2.94-.25,5.85-.27,8.74v8.74c2.61-.06,5-.14,7.07-.24,2.07-.1,4.3-.24,6.58-.41-.12.92-.2,1.61-.24,2.09-.04.48-.06,1-.06,1.52,0,.44.03.89.09,1.33.06.45.13,1.11.21,2-4.53-.48-9.09-.72-13.65-.72v10.26c0,3.48.06,6.81.18,10,2.29,0,4.57-.08,6.86-.24,2.29-.16,4.59-.43,6.91-.81-.08.59-.14,1.13-.18,1.61-.04.48-.06,1.15-.06,2s0,1.53.06,2c.03.4.09.81.18,1.2-1.08,0-2.41-.09-4-.12Z"/>
    <path class="cls-1" d="m105.21,150.25h-11c.89-3.25,1.79-6.45,2.71-9.58.92-3.13,1.9-6.3,2.94-9.5.97,3.21,1.88,6.37,2.74,9.5.86,3.13,1.73,6.32,2.61,9.58Z"/>
    <path class="cls-1" d="m189.17,131.48c.08,2.09-.18,4.17-.79,6.17-.44,1.34-1.18,2.56-2.17,3.57-.81.79-1.82,1.36-2.92,1.64-1.01.26-2.05.4-3.09.41v-11.19c.02-3.72.05-7.5.09-11.35.17-.05.36-.08.54-.08h2c.84,0,1.68.19,2.44.56.81.42,1.5,1.05,2,1.81.66,1.02,1.13,2.14,1.39,3.33.37,1.68.54,3.41.51,5.13Z"/>
    <path class="cls-1" d="m114.69,70.05h-4.12c.06-.25.15-.48.29-.69.12-.2.28-.37.46-.51.18-.15.38-.26.6-.33.22-.08.46-.12.7-.12,1.01-.05,1.89.66,2.07,1.65Z"/>
    <path class="cls-1" d="m125.04,73.37c-.47.52-1.15.81-1.85.78-.68,0-1.33-.29-1.77-.81-.48-.58-.72-1.33-.69-2.08v-.04c0-.72.24-1.42.71-1.97.44-.52,1.09-.82,1.77-.81.7-.02,1.37.27,1.83.8.93,1.22.93,2.91,0,4.13Z"/>
    <path class="cls-1" d="m170.01,71.26c.04.72-.19,1.43-.63,2-.08.1-.17.19-.27.27-1.02.88-2.56.75-3.44-.27-.43-.58-.64-1.28-.61-2-.03-.72.19-1.42.61-2,.44-.57,1.13-.9,1.85-.87.69-.02,1.35.28,1.8.8.48.58.73,1.32.69,2.07Z"/>
    <path class="cls-1" d="m180.54,73.37c-.47.52-1.14.81-1.84.78-.68,0-1.33-.29-1.77-.81-.48-.58-.72-1.33-.69-2.08v-.04c-.01-.72.24-1.43.7-1.98.06-.07.13-.14.2-.2.99-.88,2.51-.79,3.4.2.95,1.21.95,2.92,0,4.13Z"/>
    <path class="cls-1" d="m192.03,73.29c-1.08,1.03-2.78,1.03-3.86,0-.5-.59-.75-1.34-.71-2.11-.04-.75.23-1.48.73-2.04,1.06-1.05,2.78-1.05,3.84,0,.96,1.22.96,2.93,0,4.15Z"/>
    <path class="cls-1" d="m134.06,207.2c0,1.09-.52,1.63-1.57,1.63s-1.57-.65-1.57-1.64.51-1.48,1.56-1.48,1.58.49,1.58,1.49Z"/>
    <path class="cls-1" d="m134.25,212.28c.02.15.02.3,0,.45-.12.86-.91,1.45-1.76,1.33-1.17,0-1.76-.62-1.76-1.84-.05-.54.1-1.08.41-1.53.35-.35.84-.52,1.34-.48.27-.01.54.03.8.12.21.07.41.2.56.36.15.19.26.41.31.64.07.31.11.63.1.95Z"/>
    <path class="cls-1" d="m145.44,209.42c-.36.35-.87.53-1.37.48-.5.05-1-.13-1.36-.49-.32-.46-.47-1.01-.42-1.57,0-1.37.58-2.06,1.78-2.06s1.8.7,1.8,2.09c.05.55-.1,1.1-.43,1.55Z"/>
    <path class="cls-1" d="m157.17,213.21c-.25.59-.84.95-1.48.9-.64.05-1.25-.32-1.5-.91-.56-2.13-.56-4.38,0-6.51.16-.31.41-.56.72-.72.83-.43,1.85-.11,2.28.72.34,1.07.48,2.19.41,3.31.08,1.09-.07,2.18-.43,3.21Z"/>
  </g>
</svg>